<svg data-testid="img-mask" width="0" height="0">
    <clipPath clipPathUnits="objectBoundingBox">
        <path d="M0.94574 0.58672A0.09641233444213868 0.09650474166870117 0 0 0 0.9416 0.41130000000000005A0.09641233444213868 0.09650474166870117 0 0 0 0.8776 0.2478800000000001A0.09647233444213868 0.09656474166870117 0 0 0 0.75098 0.12272000000000008A0.09643233444213867 0.09652474166870116 0 0 0 0.5866399999999999 0.05426000000000009A0.09641233444213868 0.09650474166870117 0 0 0 0.41122000000000003 0.05840000000000009A0.09643233444213867 0.09652474166870116 0 0 0 0.24768000000000004 0.12440000000000008A0.09633233444213868 0.09642474166870117 0 0 0 0.12550000000000003 0.2507800000000001A0.09633233444213868 0.09642474166870117 0 0 0 0.056100000000000025 0.41230000000000006A0.09641233444213868 0.09650474166870117 0 0 0 0.058320000000000025 0.58864A0.09643233444213867 0.09652474166870116 0 0 0 0.12432000000000003 0.7521800000000001A0.09633233444213868 0.09642474166870117 0 0 0 0.25070000000000003 0.87436A0.09633233444213868 0.09642474166870117 0 0 0 0.41222000000000003 0.94376A0.09641233444213868 0.09650474166870117 0 0 0 0.5885600000000001 0.94154A0.09641233444213868 0.09650474166870117 0 0 0 0.75198 0.87754A0.09647233444213868 0.09656474166870117 0 0 0 0.87714 0.75092A0.09643233444213867 0.09652474166870116 0 0 0 0.9456 0.58658Z "
              style="fill:#fff" transform="translate(0, 0) rotate(0)" />
    </clipPath>
</svg>