<?xml version="1.0" encoding="UTF-8"?>
<svg xmlns="http://www.w3.org/2000/svg" xmlns:xlink="http://www.w3.org/1999/xlink" width="200px" height="200px" viewBox="0 0 200 200" version="1.1">
<g id="surface1">
<path style=" stroke:none;fill-rule:evenodd;fill:rgb(100%,100%,100%);fill-opacity:1;"
      d="M 50.714844 0 L 0.714844 0 L 0.714844 50 C 0.714844 75.460938 19.746094 96.480469 44.359375 99.601562 C 19.402344 102.402344 0 123.578125 0 149.285156 L 0 199.285156 L 50 199.285156 C 75.460938 199.285156 96.480469 180.253906 99.601562 155.640625 C 102.402344 180.597656 123.578125 200 149.285156 200 L 199.285156 200 L 199.285156 150 C 199.285156 124.539062 180.253906 103.519531 155.640625 100.398438 C 180.597656 97.597656 200 76.421875 200 50.714844 L 200 0.714844 L 150 0.714844 C 124.539062 0.714844 103.519531 19.746094 100.398438 44.359375 C 97.597656 19.402344 76.421875 0 50.714844 0 Z M 50.714844 0 "/>
</g>
</svg>
