<?xml version="1.0" encoding="UTF-8"?>
<svg xmlns="http://www.w3.org/2000/svg" xmlns:xlink="http://www.w3.org/1999/xlink" width="200px" height="200px" viewBox="0 0 200 200" version="1.1">
<g id="surface1">
<path style=" stroke:none;fill-rule:nonzero;fill:rgb(100%,100%,100%);fill-opacity:1;"
      d="M 165.964844 134.035156 C 160.496094 139.503906 151.632812 139.503906 146.164062 134.035156 L 122.027344 109.898438 C 116.558594 104.433594 116.558594 95.566406 122.027344 90.101562 L 146.164062 65.964844 C 151.632812 60.496094 160.496094 60.496094 165.964844 65.964844 L 190.101562 90.101562 C 195.566406 95.566406 195.566406 104.433594 190.101562 109.898438 Z M 53.835938 134.035156 C 48.367188 139.503906 39.503906 139.503906 34.035156 134.035156 L 9.898438 109.898438 C 4.433594 104.433594 4.433594 95.566406 9.898438 90.101562 L 34.035156 65.964844 C 39.503906 60.496094 48.367188 60.496094 53.835938 65.964844 L 77.972656 90.101562 C 83.441406 95.566406 83.441406 104.433594 77.972656 109.898438 Z M 109.898438 190.101562 C 104.433594 195.566406 95.566406 195.566406 90.101562 190.101562 L 65.964844 165.964844 C 60.496094 160.496094 60.496094 151.632812 65.964844 146.164062 L 90.101562 122.027344 C 95.566406 116.558594 104.433594 116.558594 109.898438 122.027344 L 134.035156 146.164062 C 139.503906 151.632812 139.503906 160.496094 134.035156 165.964844 Z M 109.898438 77.972656 C 104.433594 83.441406 95.566406 83.441406 90.101562 77.972656 L 65.964844 53.835938 C 60.496094 48.367188 60.496094 39.503906 65.964844 34.035156 L 90.101562 9.898438 C 95.566406 4.433594 104.433594 4.433594 109.898438 9.898438 L 134.035156 34.039062 C 139.503906 39.503906 139.503906 48.367188 134.035156 53.835938 Z M 109.898438 77.972656 "/>
</g>
</svg>
