<?xml version="1.0" encoding="UTF-8"?>
<svg xmlns="http://www.w3.org/2000/svg" xmlns:xlink="http://www.w3.org/1999/xlink" width="200px" height="200px" viewBox="0 0 200 200" version="1.1">
<g id="surface1">
<path style=" stroke:none;fill-rule:nonzero;fill:url(#grad);fill-opacity:1;" d="M 197.253906 99.609375 C 197.253906 116.078125 179.214844 127.84375 171.765625 141.175781 C 163.921875 154.902344 162.351562 176.46875 148.628906 184.3125 C 135.292969 192.15625 116.078125 182.746094 99.609375 182.746094 C 83.136719 182.746094 63.921875 191.765625 50.589844 184.3125 C 36.863281 176.46875 35.292969 154.902344 27.449219 141.175781 C 19.609375 127.84375 1.960938 116.078125 1.960938 99.609375 C 1.960938 83.136719 20 71.371094 27.449219 58.039062 C 35.292969 44.3125 36.863281 23.136719 50.589844 14.902344 C 63.921875 7.058594 83.136719 16.46875 99.609375 16.46875 C 116.078125 16.46875 135.292969 7.449219 148.628906 14.902344 C 162.351562 22.746094 163.921875 44.3125 171.765625 58.039062 C 179.609375 71.371094 197.253906 83.136719 197.253906 99.609375 Z M 197.253906 99.609375 "/>
</g>
    <defs>
        <linearGradient id="grad" gradientUnits="userSpaceOnUse" x1="100" y1="18" x2="100" y2="181.934">
            <stop offset="0" style="stop-color:rgb(65.490196%,70.980392%,100%);stop-opacity:1;"/>
            <stop offset="1" style="stop-color:rgb(95.294118%,67.45098%,100%);stop-opacity:1;"/>
        </linearGradient>
    </defs>
</svg>
