<?xml version="1.0" encoding="UTF-8"?>
<svg xmlns="http://www.w3.org/2000/svg" xmlns:xlink="http://www.w3.org/1999/xlink" width="200px" height="200px" viewBox="0 0 200 200" version="1.1">
<g id="surface1">
<path style=" stroke:none;fill-rule:nonzero;fill:url(#grad);fill-opacity:1;" d="M 189.566406 50.550781 L 102.066406 0.550781 C 100.785156 -0.183594 99.214844 -0.183594 97.933594 0.550781 L 10.433594 50.550781 C 9.136719 51.292969 8.332031 52.671875 8.332031 54.167969 L 8.332031 145.832031 C 8.332031 147.324219 9.132812 148.707031 10.433594 149.449219 L 97.933594 199.449219 C 98.574219 199.816406 99.285156 200 100 200 C 100.71875 200 101.425781 199.816406 102.066406 199.449219 L 189.566406 149.449219 C 190.867188 148.707031 191.667969 147.328125 191.667969 145.832031 L 191.667969 54.167969 C 191.667969 52.671875 190.863281 51.292969 189.566406 50.550781 Z M 189.566406 50.550781 "/>
</g>
    <defs>
        <linearGradient id="grad" gradientUnits="userSpaceOnUse" x1="100" y1="18" x2="100" y2="181.934">
            <stop offset="0" style="stop-color:rgb(65.490196%,70.980392%,100%);stop-opacity:1;"/>
            <stop offset="1" style="stop-color:rgb(95.294118%,67.45098%,100%);stop-opacity:1;"/>
        </linearGradient>
    </defs>
</svg>
