<?xml version="1.0" encoding="UTF-8"?>
<svg xmlns="http://www.w3.org/2000/svg" xmlns:xlink="http://www.w3.org/1999/xlink" width="200px" height="200px" viewBox="0 0 200 200" version="1.1">
<g id="surface1">
<path style=" stroke:none;fill-rule:nonzero;fill:url(#grad);fill-opacity:1;" d="M 196.605469 100 C 196.605469 112.074219 180.378906 121.132812 175.847656 131.699219 C 171.320312 142.640625 176.226562 160.378906 167.925781 168.679688 C 159.621094 176.980469 141.886719 172.074219 130.945312 176.605469 C 120.378906 181.132812 111.320312 197.359375 99.246094 197.359375 C 87.167969 197.359375 78.113281 181.132812 67.546875 176.605469 C 56.605469 172.074219 38.867188 176.980469 30.566406 168.679688 C 22.265625 160.378906 27.167969 142.640625 22.640625 131.699219 C 18.113281 121.132812 1.886719 112.074219 1.886719 100 C 1.886719 87.925781 18.113281 78.867188 22.640625 68.300781 C 27.167969 57.359375 22.265625 39.621094 30.566406 31.320312 C 38.867188 23.019531 56.605469 27.925781 67.546875 23.394531 C 78.113281 18.867188 87.167969 2.640625 99.246094 2.640625 C 111.320312 2.640625 120.378906 18.867188 130.945312 23.394531 C 141.886719 27.925781 159.621094 23.019531 167.925781 31.320312 C 176.226562 39.621094 171.320312 57.359375 175.847656 68.300781 C 180.378906 78.867188 196.605469 87.925781 196.605469 100 Z M 196.605469 100 "/>
</g>
    <defs>
        <linearGradient id="grad" gradientUnits="userSpaceOnUse" x1="100" y1="18" x2="100" y2="181.934">
            <stop offset="0" style="stop-color:rgb(65.490196%,70.980392%,100%);stop-opacity:1;"/>
            <stop offset="1" style="stop-color:rgb(95.294118%,67.45098%,100%);stop-opacity:1;"/>
        </linearGradient>
    </defs>
</svg>
