<?xml version="1.0" encoding="UTF-8"?>
<svg xmlns="http://www.w3.org/2000/svg" xmlns:xlink="http://www.w3.org/1999/xlink" width="200px" height="200px" viewBox="0 0 200 200" version="1.1">
<g id="surface1">
<path style=" stroke:none;fill-rule:nonzero;fill:url(#grad);fill-opacity:1;" d="M 184.132812 28.351562 C 173.78125 17.121094 159.574219 10.9375 144.128906 10.9375 C 132.585938 10.9375 122.011719 14.585938 112.703125 21.785156 C 108.007812 25.417969 103.75 29.863281 100 35.050781 C 96.25 29.863281 91.992188 25.417969 87.292969 21.785156 C 77.988281 14.585938 67.414062 10.9375 55.871094 10.9375 C 40.425781 10.9375 26.21875 17.121094 15.863281 28.351562 C 5.636719 39.449219 0 54.609375 0 71.042969 C 0 87.957031 6.304688 103.441406 19.835938 119.769531 C 31.941406 134.378906 49.34375 149.207031 69.492188 166.378906 C 76.371094 172.242188 84.171875 178.886719 92.269531 185.96875 C 94.40625 187.84375 97.15625 188.875 100 188.875 C 102.84375 188.875 105.589844 187.84375 107.726562 185.972656 C 115.828125 178.890625 123.628906 172.238281 130.511719 166.371094 C 150.660156 149.203125 168.058594 134.378906 180.164062 119.769531 C 193.699219 103.441406 200 87.957031 200 71.042969 C 200 54.609375 194.363281 39.449219 184.132812 28.351562 Z M 184.132812 28.351562 "/>
</g>
    <defs>
        <linearGradient id="grad" gradientUnits="userSpaceOnUse" x1="100" y1="18" x2="100" y2="181.934">
            <stop offset="0" style="stop-color:rgb(65.490196%,70.980392%,100%);stop-opacity:1;"/>
            <stop offset="1" style="stop-color:rgb(95.294118%,67.45098%,100%);stop-opacity:1;"/>
        </linearGradient>
    </defs>
</svg>
