<?xml version="1.0" encoding="UTF-8"?>
<svg xmlns="http://www.w3.org/2000/svg" xmlns:xlink="http://www.w3.org/1999/xlink" width="200px" height="200px" viewBox="0 0 200 200" version="1.1">
<g id="surface1">
<path style=" stroke:none;fill-rule:nonzero;fill:url(#grad);fill-opacity:1;" d="M 194.734375 96.207031 C 209.558594 69.675781 191.410156 37.808594 161.1875 34.800781 L 150.160156 33.699219 C 142.117188 32.898438 134.933594 29.414062 128.964844 22.714844 C 108.1875 -0.605469 69.503906 5.152344 56.769531 33.167969 C 53.667969 39.992188 48.058594 45.449219 40.976562 48.535156 L 25.441406 55.308594 C 0.675781 66.105469 -7.722656 96.066406 7.921875 117.492188 L 17.78125 130.992188 C 19.921875 133.925781 21.484375 137.167969 22.425781 140.628906 L 27.320312 158.625 C 34.027344 183.277344 61.992188 196.601562 86.398438 186.238281 L 88.488281 185.351562 C 94.699219 182.714844 101.765625 182.074219 108.382812 183.550781 L 140.433594 190.683594 C 171.65625 197.636719 199.179688 170.539062 192.207031 140.753906 L 188.152344 123.429688 C 186.507812 116.417969 187.554688 109.0625 191.097656 102.722656 Z M 194.734375 96.207031 "/>
</g>
    <defs>
        <linearGradient id="grad" gradientUnits="userSpaceOnUse" x1="100" y1="18" x2="100" y2="181.934">
            <stop offset="0" style="stop-color:rgb(65.490196%,70.980392%,100%);stop-opacity:1;"/>
            <stop offset="1" style="stop-color:rgb(95.294118%,67.45098%,100%);stop-opacity:1;"/>
        </linearGradient>
    </defs>
</svg>
