<?xml version="1.0" encoding="UTF-8"?>
<svg xmlns="http://www.w3.org/2000/svg" xmlns:xlink="http://www.w3.org/1999/xlink" width="200px" height="200px" viewBox="0 0 200 200" version="1.1">
<g id="surface1">
<path style=" stroke:none;fill-rule:nonzero;fill:url(#grad);fill-opacity:1;" d="M 196.46875 142.746094 C 196.46875 144.707031 184.3125 144.707031 183.53125 146.667969 C 182.746094 148.628906 192.550781 156.078125 191.371094 157.648438 C 190.195312 159.214844 180 152.550781 178.429688 154.117188 C 176.863281 155.292969 181.175781 167.058594 179.214844 167.84375 C 166.667969 172.15625 150.980469 163.921875 138.039062 166.273438 C 125.097656 168.628906 112.941406 181.570312 100 181.570312 C 87.058594 181.570312 74.902344 168.234375 61.960938 166.273438 C 49.019531 163.921875 33.332031 172.550781 20.785156 167.84375 C 18.824219 167.058594 23.136719 155.6875 21.570312 154.117188 C 20 152.941406 9.804688 159.214844 8.628906 157.648438 C 7.449219 156.078125 17.253906 148.628906 16.46875 146.667969 C 15.6875 144.707031 3.53125 144.707031 3.53125 142.746094 C 3.53125 135.6875 15.6875 129.019531 15.6875 121.960938 C 15.6875 114.902344 3.53125 108.234375 3.53125 101.175781 C 3.53125 94.117188 15.6875 87.449219 15.6875 80.390625 C 15.6875 73.332031 3.53125 66.667969 3.53125 59.609375 C 3.53125 57.648438 15.6875 57.648438 16.46875 55.6875 C 17.253906 53.726562 7.449219 46.273438 8.628906 44.707031 C 9.804688 43.136719 20 49.804688 21.570312 48.234375 C 23.136719 47.058594 18.824219 35.292969 20.785156 34.511719 C 33.332031 30.195312 49.019531 38.429688 61.960938 36.078125 C 74.902344 33.726562 87.058594 20.785156 100 20.785156 C 112.941406 20.785156 125.097656 34.117188 138.039062 36.078125 C 150.980469 38.429688 166.667969 29.804688 179.214844 34.511719 C 181.175781 35.292969 176.863281 46.667969 178.429688 48.234375 C 180 49.410156 190.195312 43.136719 191.371094 44.707031 C 192.550781 46.273438 182.746094 53.726562 183.53125 55.6875 C 184.3125 57.648438 196.46875 57.648438 196.46875 59.609375 C 196.46875 66.667969 184.3125 73.332031 184.3125 80.390625 C 184.3125 87.449219 196.46875 94.117188 196.46875 101.175781 C 196.46875 108.234375 184.3125 114.902344 184.3125 121.960938 C 184.3125 129.019531 196.46875 136.078125 196.46875 142.746094 Z M 196.46875 142.746094 "/>
</g>
    <defs>
        <linearGradient id="grad" gradientUnits="userSpaceOnUse" x1="100" y1="18" x2="100" y2="181.934">
            <stop offset="0" style="stop-color:rgb(65.490196%,70.980392%,100%);stop-opacity:1;"/>
            <stop offset="1" style="stop-color:rgb(95.294118%,67.45098%,100%);stop-opacity:1;"/>
        </linearGradient>
    </defs>
</svg>
