<?xml version="1.0" encoding="UTF-8"?>
<svg xmlns="http://www.w3.org/2000/svg" xmlns:xlink="http://www.w3.org/1999/xlink" width="200px" height="200px" viewBox="0 0 200 200" version="1.1">
<g id="surface1">
<path style=" stroke:none;fill-rule:nonzero;fill:url(#grad);fill-opacity:1;" d="M 182.6875 18.6875 L 160.75 18.6875 C 160.75 18.6875 14.375 165 14.1875 165.15625 L 14.1875 182.8125 C 14.179688 183.644531 14.503906 184.445312 15.09375 185.03125 C 15.679688 185.621094 16.480469 185.945312 17.3125 185.9375 L 34.78125 185.9375 C 34.90625 185.6875 185.28125 35.28125 185.28125 35.28125 C 185.445312 35.117188 185.621094 34.972656 185.8125 34.84375 L 185.8125 21.8125 C 185.820312 20.980469 185.496094 20.179688 184.90625 19.59375 C 184.320312 19.003906 183.519531 18.679688 182.6875 18.6875 Z M 143.5 185.9375 L 182.6875 185.9375 C 183.519531 185.945312 184.320312 185.621094 184.90625 185.03125 C 185.496094 184.445312 185.820312 183.644531 185.8125 182.8125 L 185.8125 143.625 C 182.121094 147.328125 143.5 185.9375 143.5 185.9375 Z M 93.5 185.9375 L 134.78125 185.9375 C 134.90625 185.6875 185.625 134.96875 185.8125 134.84375 L 185.8125 93.625 Z M 43.5 185.9375 L 84.78125 185.9375 C 84.90625 185.6875 185.625 84.96875 185.8125 84.84375 L 185.8125 43.625 Z M 151.875 18.6875 L 110.75 18.6875 C 104.628906 24.8125 14.375 115 14.1875 115.15625 L 14.1875 156.375 Z M 101.875 18.6875 L 60.75 18.6875 C 45.242188 34.1875 29.71875 49.679688 14.1875 65.15625 L 14.1875 106.375 Z M 51.875 18.6875 L 17.3125 18.6875 C 16.480469 18.679688 15.679688 19.003906 15.09375 19.59375 C 14.503906 20.179688 14.179688 20.980469 14.1875 21.8125 L 14.1875 56.375 C 18.148438 52.40625 51.875 18.6875 51.875 18.6875 Z M 51.875 18.6875 "/>
</g>
    <defs>
        <linearGradient id="grad" gradientUnits="userSpaceOnUse" x1="100" y1="18" x2="100" y2="181.934">
            <stop offset="0" style="stop-color:rgb(65.490196%,70.980392%,100%);stop-opacity:1;"/>
            <stop offset="1" style="stop-color:rgb(95.294118%,67.45098%,100%);stop-opacity:1;"/>
        </linearGradient>
    </defs>
</svg>
