<?xml version="1.0" encoding="UTF-8"?>
<svg xmlns="http://www.w3.org/2000/svg" xmlns:xlink="http://www.w3.org/1999/xlink" width="200px" height="200px" viewBox="0 0 200 200" version="1.1">
<g id="surface1">
<path style=" stroke:none;fill-rule:nonzero;fill:url(#grad);fill-opacity:1;" d="M 50 0 L 8.332031 0 C 3.730469 0 0 3.730469 0 8.332031 L 0 50 C 0 54.601562 3.730469 58.332031 8.332031 58.332031 L 50 58.332031 C 54.601562 58.332031 58.332031 54.601562 58.332031 50 L 58.332031 8.332031 C 58.332031 3.730469 54.601562 0 50 0 Z M 50 70.832031 L 8.332031 70.832031 C 3.730469 70.832031 0 74.5625 0 79.167969 L 0 120.832031 C 0 125.4375 3.730469 129.167969 8.332031 129.167969 L 50 129.167969 C 54.601562 129.167969 58.332031 125.4375 58.332031 120.832031 L 58.332031 79.167969 C 58.332031 74.5625 54.601562 70.832031 50 70.832031 Z M 129.167969 120.832031 L 129.167969 79.167969 C 129.167969 74.5625 125.4375 70.832031 120.832031 70.832031 L 79.167969 70.832031 C 74.5625 70.832031 70.832031 74.5625 70.832031 79.167969 L 70.832031 120.832031 C 70.832031 125.4375 74.5625 129.167969 79.167969 129.167969 L 120.832031 129.167969 C 125.4375 129.167969 129.167969 125.4375 129.167969 120.832031 Z M 129.167969 50 L 129.167969 8.332031 C 129.167969 3.730469 125.4375 0 120.832031 0 L 79.167969 0 C 74.5625 0 70.832031 3.730469 70.832031 8.332031 L 70.832031 50 C 70.832031 54.601562 74.5625 58.332031 79.167969 58.332031 L 120.832031 58.332031 C 125.4375 58.332031 129.167969 54.601562 129.167969 50 Z M 191.667969 0 L 150 0 C 145.398438 0 141.667969 3.730469 141.667969 8.332031 L 141.667969 50 C 141.667969 54.601562 145.398438 58.332031 150 58.332031 L 191.667969 58.332031 C 196.269531 58.332031 200 54.601562 200 50 L 200 8.332031 C 200 3.730469 196.269531 0 191.667969 0 Z M 150 129.167969 L 191.667969 129.167969 C 196.269531 129.167969 200 125.4375 200 120.832031 L 200 79.167969 C 200 74.5625 196.269531 70.832031 191.667969 70.832031 L 150 70.832031 C 145.398438 70.832031 141.667969 74.5625 141.667969 79.167969 L 141.667969 120.832031 C 141.667969 125.4375 145.398438 129.167969 150 129.167969 Z M 150 200 L 191.667969 200 C 196.269531 200 200 196.269531 200 191.667969 L 200 150 C 200 145.398438 196.269531 141.667969 191.667969 141.667969 L 150 141.667969 C 145.398438 141.667969 141.667969 145.398438 141.667969 150 L 141.667969 191.667969 C 141.667969 196.269531 145.398438 200 150 200 Z M 0 150 L 0 191.667969 C 0 196.269531 3.730469 200 8.332031 200 L 50 200 C 54.601562 200 58.332031 196.269531 58.332031 191.667969 L 58.332031 150 C 58.332031 145.398438 54.601562 141.667969 50 141.667969 L 8.332031 141.667969 C 3.730469 141.667969 0 145.398438 0 150 Z M 70.832031 150 L 70.832031 191.667969 C 70.832031 196.269531 74.5625 200 79.167969 200 L 120.832031 200 C 125.4375 200 129.167969 196.269531 129.167969 191.667969 L 129.167969 150 C 129.167969 145.398438 125.4375 141.667969 120.832031 141.667969 L 79.167969 141.667969 C 74.5625 141.667969 70.832031 145.398438 70.832031 150 Z M 70.832031 150 "/>
</g>
    <defs>
        <linearGradient id="grad" gradientUnits="userSpaceOnUse" x1="100" y1="18" x2="100" y2="181.934">
            <stop offset="0" style="stop-color:rgb(65.490196%,70.980392%,100%);stop-opacity:1;"/>
            <stop offset="1" style="stop-color:rgb(95.294118%,67.45098%,100%);stop-opacity:1;"/>
        </linearGradient>
    </defs>
</svg>
