<?xml version="1.0" encoding="UTF-8"?>
<svg xmlns="http://www.w3.org/2000/svg" xmlns:xlink="http://www.w3.org/1999/xlink" width="200px" height="200px" viewBox="0 0 200 200" version="1.1">
<g id="surface1">
<path style=" stroke:none;fill-rule:nonzero;fill:url(#grad);fill-opacity:1;" d="M 187.90625 100 L 184.652344 96.746094 L 187.90625 93.488281 C 198.605469 81.859375 198.140625 63.722656 186.511719 53.023438 L 140 9.300781 C 128.371094 -1.394531 110.234375 -0.929688 99.535156 10.699219 L 96.277344 13.953125 L 93.023438 10.699219 C 81.394531 0 63.253906 0.464844 52.558594 12.09375 L 8.835938 58.605469 C -1.859375 70.234375 -1.394531 88.371094 10.234375 99.070312 L 13.488281 102.324219 L 10.234375 105.582031 C -0.464844 117.210938 0 135.347656 11.628906 146.046875 L 58.140625 189.765625 C 69.765625 200.464844 87.90625 200 98.605469 188.371094 L 101.859375 185.117188 L 105.117188 188.371094 C 116.746094 199.070312 134.882812 198.605469 145.582031 186.976562 L 189.300781 140.464844 C 200 128.835938 199.535156 110.699219 187.90625 100 Z M 187.90625 100 "/>
</g>
    <defs>
        <linearGradient id="grad" gradientUnits="userSpaceOnUse" x1="100" y1="18" x2="100" y2="181.934">
            <stop offset="0" style="stop-color:rgb(65.490196%,70.980392%,100%);stop-opacity:1;"/>
            <stop offset="1" style="stop-color:rgb(95.294118%,67.45098%,100%);stop-opacity:1;"/>
        </linearGradient>
    </defs>
</svg>
