<?xml version="1.0" encoding="UTF-8"?>
<svg xmlns="http://www.w3.org/2000/svg" xmlns:xlink="http://www.w3.org/1999/xlink" width="200px" height="200px"
     viewBox="0 0 200 200" version="1.1">
    <path d="M 170.636719 68.511719 C 166.382812 68.085938 160.851562 59.148438 165.53125 51.914062 C 168.511719 47.234375 171.488281 42.980469 166.808594 35.320312 C 163.402344 29.363281 159.574219 30.210938 155.320312 31.488281 C 148.511719 33.617188 145.957031 23.828125 145.957031 15.746094 C 145.957031 11.488281 143.828125 7.660156 136.171875 7.660156 C 131.914062 7.660156 129.789062 11.0625 127.660156 14.894531 C 124.253906 20.425781 112.339844 22.128906 110.210938 16.171875 C 108.085938 10.210938 97.445312 9.789062 90.210938 14.46875 C 83.402344 19.148438 75.320312 17.445312 74.894531 16.171875 C 74.042969 15.320312 73.617188 14.46875 73.191406 14.46875 C 72.765625 14.46875 71.0625 10.636719 66.808594 9.363281 C 64.679688 8.511719 62.128906 8.9375 58.722656 10.210938 C 45.957031 15.320312 51.488281 27.234375 47.234375 36.171875 C 41.277344 47.660156 34.894531 34.894531 23.828125 37.871094 C 15.746094 40 9.789062 49.789062 9.789062 60 C 10.210938 69.363281 22.554688 80 21.277344 86.808594 C 20 92.339844 6.808594 84.253906 1.703125 100.425781 C 0 105.53125 0.851562 110.210938 2.128906 116.171875 C 4.679688 128.511719 11.0625 123.402344 16.171875 128.511719 C 22.128906 134.894531 22.980469 141.703125 17.019531 149.363281 C 5.105469 165.957031 19.148438 177.871094 35.320312 175.320312 C 44.253906 174.042969 58.722656 170.636719 56.171875 177.019531 C 54.894531 181.277344 51.488281 185.53125 53.617188 188.511719 C 65.105469 201.277344 74.042969 180 85.53125 180.851562 L 86.808594 180.851562 C 87.234375 180.851562 88.511719 181.703125 89.789062 182.554688 C 90.636719 183.402344 91.914062 183.828125 92.339844 184.253906 C 92.765625 184.679688 94.042969 188.9375 97.871094 191.0625 C 100 192.339844 102.554688 193.191406 105.53125 193.191406 C 111.488281 193.191406 120.425781 190.636719 124.253906 184.679688 C 125.53125 182.980469 125.53125 180 125.53125 177.445312 C 125.957031 173.191406 134.46875 176.597656 143.402344 177.871094 C 155.746094 179.574219 167.234375 171.914062 161.703125 154.042969 C 161.277344 152.765625 160.851562 151.914062 160 151.0625 C 158.722656 149.363281 158.296875 146.808594 160 145.105469 C 160.851562 144.253906 162.128906 143.828125 163.828125 144.253906 C 180.425781 147.660156 192.339844 142.128906 187.234375 127.234375 C 184.679688 119.574219 168.085938 116.171875 180.851562 111.914062 C 185.53125 110.210938 190.636719 108.511719 193.617188 102.128906 C 200.851562 87.660156 195.746094 65.53125 177.445312 68.085938 C 176.171875 68.511719 173.617188 68.9375 170.636719 68.511719 Z M 170.636719 68.511719 "
          fill="url(#grad)"
    />
    <defs>
        <linearGradient id="grad" x1="100" x2="100" y1="18" y2="181.934"
                        gradientUnits="userSpaceOnUse">
            <stop stop-color="#A7B5FF"></stop>
            <stop offset="1" stop-color="#F3ACFF"></stop>
        </linearGradient>
    </defs>
</svg>
