<?xml version="1.0" encoding="UTF-8"?>
<svg xmlns="http://www.w3.org/2000/svg" xmlns:xlink="http://www.w3.org/1999/xlink" width="200px" height="200px" viewBox="0 0 200 200" version="1.1">
<g id="surface1">
<path style=" stroke:none;fill-rule:nonzero;fill:url(#grad);fill-opacity:1;" d="M 153.4375 56.25 C 151.875 56.25 150.625 56.25 149.0625 56.5625 C 137.1875 43.4375 120.3125 35.3125 101.25 35.3125 C 82.1875 35.3125 65 43.75 53.125 57.1875 C 50.625 56.875 47.8125 56.5625 45.3125 56.5625 C 21.25 56.5625 1.5625 76.25 1.5625 100.3125 C 1.5625 124.375 20.9375 144.0625 45.3125 144.0625 C 48.125 144.0625 50.625 143.75 53.125 143.4375 C 65 156.875 82.1875 165.3125 101.25 165.3125 C 120.3125 165.3125 137.1875 157.1875 149.0625 144.0625 C 150.625 144.0625 151.875 144.375 153.4375 144.375 C 177.5 144.375 197.1875 124.6875 197.1875 100.625 C 197.1875 75.9375 177.5 56.25 153.4375 56.25 Z M 153.4375 56.25 "/>
</g>
    <defs>
        <linearGradient id="grad" gradientUnits="userSpaceOnUse" x1="100" y1="18" x2="100" y2="181.934">
            <stop offset="0" style="stop-color:rgb(65.490196%,70.980392%,100%);stop-opacity:1;"/>
            <stop offset="1" style="stop-color:rgb(95.294118%,67.45098%,100%);stop-opacity:1;"/>
        </linearGradient>
    </defs>
</svg>
