<?xml version="1.0" encoding="UTF-8"?>
<svg xmlns="http://www.w3.org/2000/svg" xmlns:xlink="http://www.w3.org/1999/xlink" width="200px" height="200px" viewBox="0 0 200 200" version="1.1">
<g id="surface1">
<path style=" stroke:none;fill-rule:nonzero;fill:url(#grad);fill-opacity:1;" d="M 199.914062 68.425781 C 199.8125 67.789062 199.613281 67.164062 199.367188 66.566406 C 199.3125 66.433594 199.3125 66.300781 199.253906 66.171875 C 199.242188 66.160156 199.238281 66.152344 199.230469 66.140625 C 199.230469 66.125 199.222656 66.117188 199.214844 66.109375 L 177.097656 19.144531 C 177.046875 19.039062 176.949219 18.941406 176.890625 18.832031 C 176.816406 18.699219 176.789062 18.539062 176.703125 18.40625 C 176.535156 18.121094 176.304688 17.898438 176.105469 17.644531 C 175.90625 17.382812 175.722656 17.097656 175.5 16.867188 C 175.167969 16.523438 174.789062 16.230469 174.40625 15.941406 C 174.164062 15.753906 173.9375 15.542969 173.671875 15.386719 C 173.226562 15.117188 172.742188 14.925781 172.25 14.742188 C 172.003906 14.648438 171.765625 14.503906 171.507812 14.433594 C 170.734375 14.210938 169.9375 14.097656 169.132812 14.097656 L 38.78125 14.097656 C 38.007812 14.097656 37.257812 14.203125 36.527344 14.394531 C 36.273438 14.460938 36.042969 14.59375 35.789062 14.679688 C 35.34375 14.847656 34.882812 14.996094 34.464844 15.238281 C 34.195312 15.390625 33.976562 15.597656 33.726562 15.765625 C 33.367188 16.019531 32.996094 16.265625 32.675781 16.574219 C 32.449219 16.796875 32.269531 17.058594 32.070312 17.308594 C 31.835938 17.585938 31.558594 17.835938 31.363281 18.148438 L 1.328125 65.117188 C 1.214844 65.300781 1.164062 65.507812 1.0625 65.699219 C 0.976562 65.855469 0.832031 65.988281 0.757812 66.15625 C 0.679688 66.332031 0.675781 66.515625 0.597656 66.683594 C 0.441406 67.109375 0.308594 67.546875 0.207031 67.992188 C 0.132812 68.335938 0.0742188 68.6875 0.03125 69.039062 C -0.00390625 69.480469 -0.0117188 69.921875 0.015625 70.359375 C 0.0429688 70.722656 0.0703125 71.078125 0.125 71.429688 C 0.203125 71.863281 0.339844 72.269531 0.476562 72.683594 C 0.601562 73.039062 0.714844 73.390625 0.882812 73.726562 C 0.9375 73.839844 0.960938 73.972656 1.015625 74.09375 C 1.171875 74.386719 1.40625 74.613281 1.597656 74.878906 C 1.753906 75.109375 1.847656 75.347656 2.023438 75.554688 L 92.808594 182.785156 C 94.375 184.632812 96.722656 185.949219 99.0625 185.878906 C 99.089844 185.878906 99.121094 185.894531 99.140625 185.894531 C 99.269531 185.902344 99.394531 185.902344 99.527344 185.902344 L 99.546875 185.902344 C 100.332031 185.902344 101.101562 185.757812 101.839844 185.558594 C 102.0625 185.488281 102.257812 185.417969 102.480469 185.335938 C 103.03125 185.140625 103.5625 184.886719 104.0625 184.585938 C 104.230469 184.488281 104.410156 184.390625 104.578125 184.277344 C 105.175781 183.863281 105.734375 183.386719 106.21875 182.8125 L 197.941406 75.582031 C 198.054688 75.441406 198.125 75.273438 198.226562 75.125 C 198.371094 74.941406 198.554688 74.789062 198.679688 74.578125 C 198.8125 74.371094 198.878906 74.136719 198.988281 73.917969 C 199.144531 73.632812 199.289062 73.347656 199.402344 73.039062 C 199.574219 72.589844 199.691406 72.136719 199.796875 71.683594 C 199.863281 71.375 199.9375 71.082031 199.964844 70.773438 C 200.023438 70.269531 200 69.773438 199.964844 69.273438 C 199.941406 68.976562 199.957031 68.699219 199.914062 68.425781 Z M 199.914062 68.425781 "/>
</g>
    <defs>
        <linearGradient id="grad" gradientUnits="userSpaceOnUse" x1="100" y1="18" x2="100" y2="181.934">
            <stop offset="0" style="stop-color:rgb(65.490196%,70.980392%,100%);stop-opacity:1;"/>
            <stop offset="1" style="stop-color:rgb(95.294118%,67.45098%,100%);stop-opacity:1;"/>
        </linearGradient>
    </defs>
</svg>
