<?xml version="1.0" encoding="UTF-8"?>
<svg xmlns="http://www.w3.org/2000/svg" xmlns:xlink="http://www.w3.org/1999/xlink" width="200px" height="200px" viewBox="0 0 200 200" version="1.1">
<g id="surface1">
<path style=" stroke:none;fill-rule:nonzero;fill:url(#grad);fill-opacity:1;" d="M 200 166.667969 C 200 185.074219 185.074219 200 166.667969 200 C 148.257812 200 133.335938 185.074219 133.335938 166.667969 C 133.335938 148.257812 148.257812 133.335938 166.667969 133.335938 C 185.078125 133.335938 200 148.257812 200 166.667969 Z M 158.335938 87.5 C 158.335938 103.609375 145.277344 116.667969 129.167969 116.667969 C 113.058594 116.667969 100 103.609375 100 87.5 C 100 71.390625 113.058594 58.332031 129.167969 58.332031 C 145.277344 58.332031 158.335938 71.390625 158.335938 87.5 Z M 100 150 C 100 177.613281 77.613281 200 50 200 C 22.386719 200 0 177.613281 0 150 C 0 122.386719 22.386719 100 50 100 C 77.613281 100 100 122.386719 100 150 Z M 83.335938 41.667969 C 83.335938 64.679688 64.679688 83.335938 41.667969 83.335938 C 18.65625 83.335938 0 64.679688 0 41.667969 C 0 18.65625 18.65625 0 41.667969 0 C 64.679688 0 83.335938 18.65625 83.335938 41.667969 Z M 200 25 C 200 38.808594 188.808594 50 175 50 C 161.191406 50 150 38.808594 150 25 C 150 11.191406 161.191406 0 175 0 C 188.808594 0 200 11.191406 200 25 Z M 191.664062 108.332031 C 191.664062 112.933594 187.933594 116.664062 183.332031 116.664062 C 178.730469 116.664062 175 112.933594 175 108.332031 C 175 103.730469 178.730469 100 183.332031 100 C 187.933594 100 191.664062 103.730469 191.664062 108.332031 Z M 129.167969 29.167969 C 129.167969 36.070312 123.570312 41.667969 116.667969 41.667969 C 109.765625 41.667969 104.167969 36.070312 104.167969 29.167969 C 104.167969 22.265625 109.761719 16.667969 116.667969 16.667969 C 123.570312 16.667969 129.167969 22.265625 129.167969 29.167969 Z M 129.167969 29.167969 "/>
</g>
    <defs>
        <linearGradient id="grad" gradientUnits="userSpaceOnUse" x1="100" y1="18" x2="100" y2="181.934">
            <stop offset="0" style="stop-color:rgb(65.490196%,70.980392%,100%);stop-opacity:1;"/>
            <stop offset="1" style="stop-color:rgb(95.294118%,67.45098%,100%);stop-opacity:1;"/>
        </linearGradient>
    </defs>
</svg>
