<?xml version="1.0" encoding="UTF-8"?>
<svg xmlns="http://www.w3.org/2000/svg" xmlns:xlink="http://www.w3.org/1999/xlink" width="200px" height="200px" viewBox="0 0 200 200" version="1.1">
<g id="surface1">
<path style=" stroke:none;fill-rule:nonzero;fill:url(#grad);fill-opacity:1;" d="M 105.359375 90.738281 L 94.648438 90.738281 C 92.488281 90.738281 90.742188 92.488281 90.742188 94.644531 L 90.742188 105.359375 C 90.742188 107.515625 92.488281 109.265625 94.648438 109.265625 L 105.359375 109.265625 C 107.519531 109.265625 109.265625 107.515625 109.265625 105.359375 L 109.265625 94.644531 C 109.265625 92.488281 107.519531 90.738281 105.359375 90.738281 Z M 75.117188 30.25 L 64.402344 30.25 C 62.242188 30.25 60.496094 31.996094 60.496094 34.15625 L 60.496094 44.867188 C 60.496094 47.027344 62.242188 48.773438 64.402344 48.773438 L 75.117188 48.773438 C 77.273438 48.773438 79.023438 47.027344 79.023438 44.867188 L 79.023438 34.15625 C 79.023438 31.996094 77.273438 30.25 75.117188 30.25 Z M 84.890625 169.753906 L 105.359375 169.753906 C 107.519531 169.753906 109.265625 168.003906 109.265625 165.847656 L 109.265625 124.890625 C 109.265625 122.730469 107.519531 120.984375 105.359375 120.984375 L 64.402344 120.984375 C 62.246094 120.984375 60.496094 122.730469 60.496094 124.890625 L 60.496094 165.847656 C 60.496094 168.003906 62.246094 169.753906 64.402344 169.753906 Z M 135.605469 151.226562 L 124.890625 151.226562 C 122.734375 151.226562 120.984375 152.976562 120.984375 155.132812 L 120.984375 165.847656 C 120.984375 168.003906 122.734375 169.753906 124.890625 169.753906 L 135.605469 169.753906 C 137.761719 169.753906 139.511719 168.003906 139.511719 165.847656 L 139.511719 155.132812 C 139.511719 152.976562 137.761719 151.226562 135.605469 151.226562 Z M 135.605469 79.019531 C 137.761719 79.019531 139.511719 77.269531 139.511719 75.113281 L 139.511719 34.15625 C 139.511719 31.996094 137.761719 30.25 135.605469 30.25 L 94.648438 30.25 C 92.488281 30.25 90.742188 31.996094 90.742188 34.15625 L 90.742188 75.113281 C 90.742188 77.269531 92.488281 79.019531 94.648438 79.019531 Z M 75.117188 109.265625 C 77.273438 109.265625 79.023438 107.515625 79.023438 105.359375 L 79.023438 64.398438 C 79.023438 62.242188 77.273438 60.492188 75.117188 60.492188 L 34.15625 60.492188 C 32 60.492188 30.25 62.242188 30.25 64.398438 L 30.25 105.359375 C 30.25 107.515625 32 109.265625 34.15625 109.265625 Z M 185.382812 139.507812 L 196.09375 139.507812 C 198.25 139.507812 200 137.761719 200 135.601562 L 200 124.890625 C 200 122.730469 198.25 120.984375 196.09375 120.984375 L 185.382812 120.984375 C 183.226562 120.984375 181.476562 122.730469 181.476562 124.890625 L 181.476562 135.601562 C 181.476562 137.761719 183.226562 139.507812 185.382812 139.507812 Z M 34.15625 139.507812 L 44.871094 139.507812 C 47.027344 139.507812 48.777344 137.761719 48.777344 135.601562 L 48.777344 124.890625 C 48.777344 122.730469 47.027344 120.984375 44.871094 120.984375 L 34.15625 120.984375 C 32 120.984375 30.25 122.730469 30.25 124.890625 L 30.25 135.601562 C 30.25 137.761719 32 139.507812 34.15625 139.507812 Z M 185.382812 60.492188 C 183.226562 60.492188 181.476562 62.242188 181.476562 64.398438 L 181.476562 105.359375 C 181.476562 107.515625 183.226562 109.265625 185.382812 109.265625 L 196.09375 109.265625 C 198.25 109.265625 200 107.515625 200 105.359375 L 200 64.398438 C 200 62.242188 198.25 60.492188 196.09375 60.492188 Z M 151.230469 44.867188 C 151.230469 47.027344 152.980469 48.773438 155.136719 48.773438 L 196.09375 48.773438 C 198.25 48.773438 200 47.027344 200 44.867188 L 200 3.90625 C 200 1.75 198.25 0 196.09375 0 L 155.136719 0 C 152.980469 0 151.230469 1.75 151.230469 3.90625 Z M 165.851562 139.507812 C 168.007812 139.507812 169.757812 137.761719 169.757812 135.601562 L 169.757812 94.644531 C 169.757812 92.488281 168.007812 90.738281 165.851562 90.738281 L 124.890625 90.738281 C 122.734375 90.738281 120.984375 92.488281 120.984375 94.644531 L 120.984375 135.601562 C 120.984375 137.761719 122.734375 139.507812 124.890625 139.507812 Z M 14.621094 60.492188 L 3.90625 60.492188 C 1.75 60.492188 0 62.242188 0 64.398438 L 0 75.113281 C 0 77.269531 1.75 79.019531 3.90625 79.019531 L 14.621094 79.019531 C 16.78125 79.019531 18.527344 77.269531 18.527344 75.113281 L 18.527344 64.398438 C 18.527344 62.242188 16.78125 60.492188 14.621094 60.492188 Z M 165.851562 60.492188 L 155.136719 60.492188 C 152.980469 60.492188 151.230469 62.242188 151.230469 64.398438 L 151.230469 75.113281 C 151.230469 77.269531 152.980469 79.019531 155.136719 79.019531 L 165.851562 79.019531 C 168.007812 79.019531 169.757812 77.269531 169.757812 75.113281 L 169.757812 64.398438 C 169.757812 62.242188 168.007812 60.492188 165.851562 60.492188 Z M 60.496094 185.378906 L 60.496094 196.09375 C 60.496094 198.25 62.246094 200 64.402344 200 L 75.117188 200 C 77.273438 200 79.023438 198.25 79.023438 196.09375 L 79.023438 185.378906 C 79.023438 183.222656 77.273438 181.472656 75.117188 181.472656 L 64.402344 181.472656 C 62.246094 181.472656 60.496094 183.222656 60.496094 185.378906 Z M 200 155.132812 C 200 152.976562 198.25 151.226562 196.09375 151.226562 L 155.136719 151.226562 C 152.980469 151.226562 151.230469 152.976562 151.230469 155.132812 L 151.230469 196.09375 C 151.230469 198.25 152.980469 200 155.136719 200 L 196.09375 200 C 198.25 200 200 198.25 200 196.09375 Z M 90.742188 185.378906 L 90.742188 196.09375 C 90.742188 198.25 92.488281 200 94.648438 200 L 135.605469 200 C 137.761719 200 139.511719 198.25 139.511719 196.09375 L 139.511719 185.378906 C 139.511719 183.222656 137.761719 181.472656 135.605469 181.472656 L 94.648438 181.472656 C 92.488281 181.472656 90.742188 183.222656 90.742188 185.378906 Z M 0 155.136719 L 0 196.09375 C 0 198.25 1.75 200 3.90625 200 L 44.867188 200 C 47.023438 200 48.773438 198.25 48.773438 196.09375 L 48.773438 155.136719 C 48.773438 152.976562 47.023438 151.230469 44.867188 151.230469 L 3.90625 151.230469 C 1.75 151.230469 0 152.976562 0 155.136719 Z M 14.621094 90.738281 L 3.90625 90.738281 C 1.75 90.738281 0 92.488281 0 94.644531 L 0 135.601562 C 0 137.761719 1.75 139.507812 3.90625 139.507812 L 14.621094 139.507812 C 16.777344 139.507812 18.527344 137.761719 18.527344 135.601562 L 18.527344 94.644531 C 18.527344 92.488281 16.777344 90.738281 14.621094 90.738281 Z M 84.882812 18.53125 L 105.359375 18.53125 C 107.519531 18.53125 109.265625 16.78125 109.265625 14.625 L 109.265625 3.90625 C 109.265625 1.75 107.519531 0 105.359375 0 L 64.402344 0 C 62.246094 0 60.496094 1.75 60.496094 3.90625 L 60.496094 14.625 C 60.496094 16.78125 62.246094 18.53125 64.402344 18.53125 Z M 139.511719 14.625 L 139.511719 3.90625 C 139.511719 1.75 137.761719 0 135.605469 0 L 124.890625 0 C 122.734375 0 120.984375 1.75 120.984375 3.90625 L 120.984375 14.625 C 120.984375 16.78125 122.734375 18.53125 124.890625 18.53125 L 135.605469 18.53125 C 137.761719 18.53125 139.511719 16.78125 139.511719 14.625 Z M 0 44.867188 C 0 47.027344 1.75 48.773438 3.90625 48.773438 L 44.867188 48.773438 C 47.023438 48.773438 48.773438 47.027344 48.773438 44.867188 L 48.773438 3.90625 C 48.773438 1.75 47.023438 0 44.867188 0 L 3.90625 0 C 1.75 0 0 1.75 0 3.90625 Z M 0 44.867188 "/>
</g>
    <defs>
        <linearGradient id="grad" gradientUnits="userSpaceOnUse" x1="100" y1="18" x2="100" y2="181.934">
            <stop offset="0" style="stop-color:rgb(65.490196%,70.980392%,100%);stop-opacity:1;"/>
            <stop offset="1" style="stop-color:rgb(95.294118%,67.45098%,100%);stop-opacity:1;"/>
        </linearGradient>
    </defs>
</svg>
